<?xml version="1.0" encoding="iso-8859-1"?>
<!-- Generator: Adobe Illustrator 16.0.0, SVG Export Plug-In . SVG Version: 6.00 Build 0)  -->
<!DOCTYPE svg PUBLIC "-//W3C//DTD SVG 1.1//EN" "http://www.w3.org/Graphics/SVG/1.1/DTD/svg11.dtd">
<svg version="1.1" id="Capa_1" xmlns="http://www.w3.org/2000/svg" xmlns:xlink="http://www.w3.org/1999/xlink" x="0px" y="0px"
	 width="611.998px" fill="#fff" height="611.998px" viewBox="0 0 611.998 611.998" style="enable-background:new 0 0 611.998 611.998;"
	 xml:space="preserve">
<g>
	<g>
		<g>
			<g>
				<g>
					<path d="M306.329,611.998c-8.544,0-17.217-0.361-25.778-1.076C112.418,596.896-12.955,448.696,1.071,280.558
						c6.421-76.968,41.31-148.062,98.239-200.186C155.917,28.542,229.197,0,305.652,0c8.546,0,17.218,0.361,25.775,1.076
						c81.451,6.794,155.38,44.899,208.167,107.298c52.787,62.396,78.115,141.614,71.32,223.063
						c-6.422,76.968-41.31,148.062-98.238,200.188C456.071,583.456,382.788,611.998,306.329,611.998z M305.652,8.031
						c-74.443,0-145.797,27.794-200.919,78.265c-55.434,50.755-89.407,119.983-95.66,194.93
						C-4.583,444.95,117.5,589.264,281.218,602.92c8.337,0.696,16.787,1.048,25.11,1.048c74.448,0,145.803-27.796,200.925-78.266
						c55.436-50.756,89.406-119.984,95.658-194.935c6.617-79.311-18.046-156.45-69.449-217.208
						C482.061,52.802,410.075,15.695,330.761,9.078C322.424,8.384,313.977,8.031,305.652,8.031z"/>
				</g>
			</g>
			<g>
				<path d="M366.317,201.909c17.92,0,35.034,6.211,50.876,18.469c6.406,4.947,8.278,7.109,8.787,8.031
					c-0.432,1.046-2.137,3.389-7.428,8.622c-21.427,21.188-31.79,47.469-29.182,74.004c2.589,26.334,17.711,49.885,42.57,66.307
					c3.209,2.126,3.517,3.105,3.518,3.114c0.029,0.1,0.233,1.072-1.181,4.705c-8.708,22.589-21.668,43.571-39.628,64.154
					c-9.378,10.776-20.25,16.24-32.317,16.24c-6.115,0-12.494-1.442-18.952-4.29c-14.031-6.198-27.489-9.216-41.138-9.216
					c-13.229,0-26.208,2.825-39.691,8.642c-8.18,3.542-15.048,5.264-20.996,5.264c-10.342,0-19.365-5.082-31.146-17.537
					c-16.752-17.719-30.923-41.276-40.98-68.128c-10.417-27.809-15.902-57.949-15.864-87.167
					c0.355-13.255,5.432-35.391,18.601-54.318c15.88-22.903,39.215-36.038,64.027-36.038c9.876,0,19.828,2.038,29.575,6.055
					c11.539,4.759,22.411,7.072,33.236,7.072c10.646,0,21.373-2.239,32.793-6.842C343.565,204.313,355.178,201.909,366.317,201.909
					 M366.317,193.878c-12.272,0-24.824,2.612-37.519,7.727c-10.312,4.157-20.041,6.261-29.792,6.261
					c-9.828,0-19.68-2.138-30.175-6.464c-10.933-4.507-21.932-6.661-32.638-6.661c-27.542,0-53.136,14.269-70.625,39.494
					c-14.682,21.098-19.685,44.943-20.033,58.784c-0.106,62.651,24.092,123.958,59.04,160.92
					c12.685,13.412,23.766,20.05,36.981,20.05c7.221,0,15.082-1.982,24.186-5.927c12.395-5.345,24.468-7.979,36.501-7.979
					c12.567,0,25.092,2.871,37.893,8.53c7.593,3.344,15.04,4.976,22.198,4.976c14.357,0,27.549-6.56,38.375-19.001
					c17.324-19.854,31.497-41.724,41.063-66.537c3.133-8.06,2.44-12.213-5.396-17.403c-47.479-31.364-52.585-87.95-12.178-127.906
					c13.495-13.352,13.535-16.649-2.102-28.721C404.56,200.449,385.789,193.878,366.317,193.878L366.317,193.878z"/>
				<path d="M362.911,114.085c-0.063,1.157-0.059,2.448,0.17,3.799c-1.259,14.911-7.988,29.874-19.032,42.257
					c-11.009,12.345-25.249,20.584-39.073,22.609c-0.678,0.1-1.283,0.163-1.807,0.193c-0.042-0.511-0.071-1.195-0.066-2.096
					c0.069-13.461,7.681-29.733,20.36-43.528C335.616,124.095,350.242,115.507,362.911,114.085 M365.219,105.891
					c-0.426,0-0.88,0.016-1.366,0.048c-31.937,2.178-68.613,42.053-68.782,74.864c-0.037,6.917,1.496,10.188,7.509,10.188
					c1.047,0,2.231-0.1,3.564-0.297c32.669-4.783,62.715-37.961,65.037-73.437C369.819,113.443,374.453,105.891,365.219,105.891
					L365.219,105.891z"/>
			</g>
		</g>
	</g>
</g>
<g>
</g>
<g>
</g>
<g>
</g>
<g>
</g>
<g>
</g>
<g>
</g>
<g>
</g>
<g>
</g>
<g>
</g>
<g>
</g>
<g>
</g>
<g>
</g>
<g>
</g>
<g>
</g>
<g>
</g>
</svg>
