<?xml version="1.0" encoding="iso-8859-1"?>
<!-- Generator: Adobe Illustrator 16.0.0, SVG Export Plug-In . SVG Version: 6.00 Build 0)  -->
<!DOCTYPE svg PUBLIC "-//W3C//DTD SVG 1.1//EN" "http://www.w3.org/Graphics/SVG/1.1/DTD/svg11.dtd">
<svg version="1.1" id="Capa_1" xmlns="http://www.w3.org/2000/svg" xmlns:xlink="http://www.w3.org/1999/xlink" x="0px" y="0px"
	 width="612px" height="612px" viewBox="0 0 612 612" style="enable-background:new 0 0 612 612;" xml:space="preserve">
<g>
	<g>
		<g>
			<path d="M304.975,182.75c13.824-2.025,28.064-10.265,39.073-22.609c11.044-12.383,17.773-27.346,19.032-42.257
				c-0.228-1.349-0.232-2.642-0.17-3.799c-12.669,1.421-27.295,10.008-39.448,23.233c-12.681,13.795-20.292,30.067-20.36,43.528
				c-0.005,0.903,0.023,1.585,0.065,2.096C303.691,182.914,304.296,182.85,304.975,182.75z"/>
			<path d="M431.944,377.343c-24.86-16.423-39.983-39.974-42.57-66.306c-2.608-26.535,7.756-52.816,29.182-74.004
				c5.289-5.233,6.996-7.576,7.428-8.622c-0.509-0.922-2.382-3.084-8.787-8.031c-15.843-12.258-32.956-18.469-50.876-18.469
				c-11.142,0-22.753,2.404-34.517,7.144c-11.422,4.605-22.148,6.842-32.794,6.842c-10.824,0-21.696-2.313-33.235-7.072
				c-9.748-4.017-19.699-6.055-29.575-6.055c-24.812,0-48.147,13.135-64.027,36.039c-13.17,18.927-18.248,41.063-18.603,54.318
				c-0.037,29.217,5.448,59.356,15.864,87.166c10.058,26.854,24.227,50.41,40.98,68.128c11.779,12.455,20.804,17.536,31.146,17.536
				c5.947,0,12.815-1.723,20.995-5.264c13.482-5.816,26.463-8.642,39.69-8.642c13.651,0,27.108,3.016,41.139,9.217
				c6.459,2.844,12.838,4.289,18.953,4.289c12.064,0,22.938-5.465,32.316-16.24c17.96-20.583,30.92-41.565,39.629-64.154
				c1.413-3.635,1.207-4.606,1.18-4.706C435.458,380.447,435.153,379.47,431.944,377.343z"/>
			<path d="M539.595,108.375C486.808,45.977,412.88,7.871,331.428,1.077c-8.559-0.715-17.23-1.076-25.776-1.076
				c-76.455,0-149.737,28.542-206.343,80.373C42.381,132.497,7.493,203.591,1.071,280.559
				C-12.955,448.698,112.42,596.897,280.55,610.923c8.562,0.715,17.232,1.076,25.778,1.076c76.46,0,149.743-28.542,206.35-80.372
				c56.929-52.126,91.816-123.22,98.237-200.188C617.71,249.989,592.382,170.772,539.595,108.375z M363.853,105.94
				c0.485-0.034,0.941-0.048,1.367-0.048c9.233,0,4.6,7.552,5.962,11.367c-2.321,35.476-32.367,68.654-65.036,73.438
				c-1.335,0.196-2.52,0.297-3.566,0.297c-6.013,0-7.545-3.27-7.508-10.188C295.24,147.993,331.917,108.118,363.853,105.94z
				 M441.775,388.051c-9.566,24.812-23.738,46.681-41.063,66.537c-10.827,12.441-24.017,19.001-38.375,19.001
				c-7.159,0-14.608-1.63-22.198-4.976c-12.802-5.657-25.326-8.53-37.894-8.53c-12.033,0-24.105,2.634-36.501,7.979
				c-9.104,3.941-16.964,5.924-24.185,5.924c-13.215,0-24.294-6.638-36.981-20.05c-34.948-36.964-59.146-98.271-59.04-160.92
				c0.349-13.84,5.352-37.687,20.034-58.785c17.489-25.225,43.083-39.493,70.625-39.493c10.706,0,21.705,2.155,32.638,6.661
				c10.493,4.327,20.346,6.464,30.174,6.464c9.752,0,19.481-2.104,29.792-6.261c12.693-5.115,25.245-7.727,37.519-7.727
				c19.473,0,38.243,6.571,55.783,20.143c15.635,12.072,15.597,15.368,2.102,28.721c-40.407,39.956-35.303,96.541,12.178,127.906
				C444.214,375.84,444.907,379.991,441.775,388.051z"/>
		</g>
	</g>
</g>
<g>
</g>
<g>
</g>
<g>
</g>
<g>
</g>
<g>
</g>
<g>
</g>
<g>
</g>
<g>
</g>
<g>
</g>
<g>
</g>
<g>
</g>
<g>
</g>
<g>
</g>
<g>
</g>
<g>
</g>
</svg>
